<svg xmlns="http://www.w3.org/2000/svg" xmlns:xlink="http://www.w3.org/1999/xlink" id="Layer_1" x="0px" y="0px" viewBox="0 0 490 490" style="enable-background:new 0 0 490 490;" xml:space="preserve">
<g>
	<g>
		<g>
			<path d="M440,0H50c-5.522,0-10,4.477-10,10v470c0,5.522,4.478,10,10,10h390c5.522,0,10-4.478,10-10V10C450,4.477,445.522,0,440,0     z M310,470H60V290h250V470z M310,270H60V110h250V270z M310,90H60V60h240V40H60V20h250V90z M430,470H330V20h100V470z"></path>
			<rect x="245" y="370" width="40" height="20"></rect>
			<rect x="175" y="410" width="110" height="20"></rect>
			<path d="M180,255c35.841,0,65-29.159,65-65s-29.159-65-65-65s-65,29.159-65,65S144.159,255,180,255z M136.134,180     c4.561-20.015,22.49-35,43.866-35c24.814,0,45,20.186,45,45c0,24.814-20.186,45-45,45c-21.376,0-39.305-14.985-43.866-35H190v-20     H136.134z"></path>
			<path d="M355,325h50c5.522,0,10-4.478,10-10V45c0-5.522-4.478-10-10-10h-50c-5.522,0-10,4.478-10,10v270     C345,320.522,349.478,325,355,325z M365,55h30v250h-30V55z"></path>
			<rect x="345" y="345" width="70.195" height="20"></rect>
			<rect x="345" y="380" width="70.195" height="20"></rect>
			<rect x="395" y="415" width="20" height="20"></rect>
			<rect x="365" y="415" width="20" height="20"></rect>
		</g>
	</g>
</g>
<g>
</g>
<g>
</g>
<g>
</g>
<g>
</g>
<g>
</g>
<g>
</g>
<g>
</g>
<g>
</g>
<g>
</g>
<g>
</g>
<g>
</g>
<g>
</g>
<g>
</g>
<g>
</g>
<g>
</g>
</svg>