<svg xmlns="http://www.w3.org/2000/svg" xmlns:xlink="http://www.w3.org/1999/xlink" id="Layer_1" x="0px" y="0px" viewBox="0 0 512.001 512.001" style="enable-background:new 0 0 512.001 512.001;" xml:space="preserve">
<g>
	<g>
		<circle cx="155.877" cy="93.218" r="45.181"></circle>
	</g>
</g>
<g>
	<g>
		<path d="M317.698,256.457H199.813c-6.239,0-11.296,5.058-11.296,11.296c0,6.239,5.058,11.296,11.296,11.296h117.885    c6.238,0,11.296-5.058,11.296-11.296C328.994,261.515,323.936,256.457,317.698,256.457z"></path>
	</g>
</g>
<g>
	<g>
		<path d="M510.553,47.517L398.947,31.423c-1.031-0.148-2.077,0.14-2.885,0.795l-21.119,17.118c-1.21,0.98-0.556,2.945,1,3.006    l86.8,3.318l-87.321,11.669c-0.988,0.133-1.647,1.086-1.425,2.054l8.779,38.319c0.535,2.337,3.108,3.573,5.268,2.529    L511.05,50.714C512.545,49.99,512.201,47.753,510.553,47.517z"></path>
	</g>
</g>
<g>
	<g>
		<path d="M320.09,106.484c-6.234-9.433-18.934-12.026-28.363-5.792c-9.462,6.254-73.19,48.365-82.667,54.628l-86.327,12.679    l35.461-13.833l-44.733-0.32c-19.06-0.136-34.576,15.32-34.524,34.372l0.318,116.261c0.044,15.859,10.984,29.724,26.618,33.309    H62.786L33.574,189.174c-1.804-9.182-10.71-15.161-19.894-13.358C4.497,177.62-1.484,186.528,0.321,195.71l31.901,162.292    c1.526,7.762,8.211,13.394,16.068,13.652l-32.573,84.46c-2.245,5.82,0.653,12.359,6.475,14.604    c5.818,2.245,12.359-0.653,14.604-6.475l35.699-92.565h71.318l20.412,52.926l-8.865,22.403    c-4.992,12.616,1.188,26.888,13.802,31.879c12.619,4.992,26.889-1.191,31.879-13.802l55.76-140.91    c2.998-7.577,2.044-16.146-2.546-22.877c-4.578-6.711-12.174-10.724-20.295-10.724c-0.025,0-0.048,0-0.073,0l-56.471,0.165    l1.254-79.628l-36.944-4.52l77.791-11.425c2.97-0.437,5.807-1.52,8.311-3.175c10.29-6.8,72.686-48.034,86.469-57.141    C323.729,128.616,326.322,115.917,320.09,106.484z M175.592,339.87l22.189-0.065l-21.294,53.811l-8.471-21.965    c9.097-0.297,16.387-7.746,16.387-16.916C184.403,348.325,180.842,342.75,175.592,339.87z"></path>
	</g>
</g>
<g>
</g>
<g>
</g>
<g>
</g>
<g>
</g>
<g>
</g>
<g>
</g>
<g>
</g>
<g>
</g>
<g>
</g>
<g>
</g>
<g>
</g>
<g>
</g>
<g>
</g>
<g>
</g>
<g>
</g>
</svg>